<svg viewBox="0 0 20 20" xmlns="http://www.w3.org/2000/svg" xmlns:xlink="http://www.w3.org/1999/xlink" width="20.000000" height="20.000000" fill="none">
	<rect id="Social icon" width="20.000000" height="20.000000" x="0.000000" y="0.000000" fill="rgb(255,255,255)" fill-opacity="0" />
	<path id="Vector" d="M20 10C20 4.47715 15.5229 0 10 0C4.47715 0 0 4.47715 0 10C0 14.9912 3.65684 19.1283 8.4375 19.8785L8.4375 12.8906L5.89844 12.8906L5.89844 10L8.4375 10L8.4375 7.79688C8.4375 5.29063 9.93047 3.90625 12.2146 3.90625C13.3084 3.90625 14.4531 4.10156 14.4531 4.10156L14.4531 6.5625L13.1922 6.5625C11.95 6.5625 11.5625 7.3334 11.5625 8.125L11.5625 10L14.3359 10L13.8926 12.8906L11.5625 12.8906L11.5625 19.8785C16.3432 19.1283 20 14.9912 20 10Z" fill="rgb(255,255,255)" fill-rule="nonzero" />
</svg>
