<svg viewBox="0 0 96.6309 30.0201" xmlns="http://www.w3.org/2000/svg" xmlns:xlink="http://www.w3.org/1999/xlink" width="96.630859" height="30.020142" fill="none" customFrame="#000000">
	<path id="Vector" d="M27.8095 21.2827C27.6574 20.917 27.5149 20.5327 27.3628 20.2045L26.6595 18.6389L26.631 18.6108C24.5401 14.1108 22.3067 9.53578 19.9401 5.03578L19.8451 4.84828C19.6075 4.40765 19.3699 3.92015 19.1228 3.47015C18.8187 2.93578 18.524 2.3639 18.0393 1.82015C17.5669 1.25121 16.9723 0.792827 16.2984 0.478077C15.6245 0.163327 14.8883 6.10352e-05 14.1427 6.10352e-05C13.3971 6.10352e-05 12.6608 0.163327 11.987 0.478077C11.3131 0.792827 10.7185 1.25121 10.246 1.82015C9.79934 2.3639 9.4667 2.93578 9.16257 3.47015C8.92497 3.95765 8.68737 4.43578 8.44026 4.8764L8.34522 5.0639C6.01673 9.5639 3.74527 14.1389 1.65438 18.6389L1.59735 18.6952C1.38827 19.1827 1.14116 19.6889 0.903559 20.2327C0.751495 20.5608 0.59943 20.917 0.447365 21.3108C0.036822 22.3418 -0.0942774 23.4606 0.0669875 24.5569C0.228252 25.6531 0.676315 26.689 1.36702 27.5624C2.05772 28.4358 2.96722 29.1166 4.00589 29.5378C5.04456 29.9589 6.17654 30.1057 7.29027 29.9639C8.35802 29.8253 9.38617 29.4744 10.3126 28.9327C11.5481 28.2483 12.7361 27.2545 14.0667 25.8202C15.3972 27.2545 16.6137 28.2483 17.8207 28.942C18.9815 29.6141 20.2959 29.985 21.6414 30.0201C23.1994 30.0265 24.7072 29.4767 25.8863 28.4721C27.0655 27.4675 27.8363 26.076 28.0566 24.5545C28.3112 23.4612 28.225 22.3175 27.8095 21.2733L27.8095 21.2827ZM14.1617 22.8389C12.527 20.7764 11.4625 18.8827 11.1014 17.2608C10.9518 16.6598 10.9195 16.0362 11.0064 15.4233C11.0729 14.9452 11.2535 14.5233 11.5006 14.167C12.0708 13.3514 13.0687 12.8452 14.1617 12.8452C14.6807 12.8295 15.1956 12.9412 15.6601 13.1703C16.1245 13.3994 16.5241 13.7387 16.8228 14.1577C17.0699 14.5326 17.2505 14.9452 17.3075 15.4233C17.4026 15.967 17.3646 16.5951 17.2125 17.2608C16.8513 18.8545 15.7869 20.767 14.1617 22.8389ZM26.2698 24.2264C26.1619 24.9988 25.8506 25.7299 25.367 26.3467C24.8834 26.9636 24.2444 27.4446 23.5137 27.742C22.7914 28.042 21.993 28.1264 21.2137 28.042C20.4534 27.9483 19.693 27.7045 18.9137 27.2545C17.6197 26.4656 16.4562 25.4855 15.4637 24.3483C17.4596 21.9108 18.6666 19.6889 19.1228 17.7108C19.3414 16.7733 19.3699 15.9295 19.2749 15.1514C19.1562 14.4139 18.8774 13.7103 18.4575 13.0889C17.9781 12.4151 17.3383 11.8678 16.5942 11.495C15.8501 11.1223 15.0246 10.9356 14.1902 10.9514C12.432 10.9514 10.8638 11.7577 9.91339 13.0795C9.48555 13.6994 9.20905 14.4085 9.10554 15.1514C8.98199 15.9389 9.0105 16.8108 9.25761 17.7108C9.7138 19.6889 10.9493 21.9389 12.9167 24.367C11.9411 25.5259 10.7748 26.5147 9.4667 27.292C8.67786 27.742 7.92704 27.9764 7.16672 28.0702C5.98431 28.2196 4.7899 27.9026 3.84312 27.1881C2.89634 26.4736 2.27371 25.4194 2.11057 24.2545C2.01553 23.5045 2.08206 22.7545 2.38619 21.9108C2.48123 21.6108 2.62379 21.3108 2.77585 20.9545C2.98494 20.467 3.23205 19.9608 3.46965 19.4545L3.50767 19.3889C5.56054 14.917 7.80349 10.3514 10.132 5.87953L10.227 5.69203C10.4646 5.24203 10.7022 4.7639 10.9493 4.3139C11.1964 3.83578 11.4625 3.3764 11.8047 3.0014C12.1008 2.65267 12.4709 2.37222 12.8888 2.17979C13.3067 1.98736 13.7623 1.88764 14.2235 1.88764C14.6847 1.88764 15.1402 1.98736 15.5581 2.17979C15.976 2.37222 16.3461 2.65267 16.6422 3.0014C16.9749 3.3764 17.2505 3.83578 17.4976 4.3139C17.7352 4.7639 17.9728 5.2514 18.2199 5.69203L18.315 5.87953C20.6339 10.3514 22.8769 14.917 24.9678 19.3889L24.9963 19.417C25.2434 19.9045 25.4525 20.4483 25.6901 20.917C25.8422 21.2827 25.9942 21.5733 26.0893 21.8827C26.2698 22.7264 26.3649 23.4764 26.2698 24.2264ZM39.4995 22.6327C38.7833 22.643 38.074 22.4941 37.4241 22.1971C36.7742 21.9001 36.2004 21.4626 35.7454 20.917C34.7228 19.7545 34.1801 18.2555 34.2247 16.717C34.2091 15.145 34.7693 13.6203 35.8024 12.4233C36.2802 11.8707 36.8751 11.4282 37.5451 11.127C38.215 10.8257 38.9438 10.673 39.68 10.6795C40.3728 10.6608 41.059 10.8162 41.6742 11.1311C42.2893 11.446 42.8132 11.91 43.1965 12.4795L43.2916 11.0077L46.0667 11.0077L46.0667 22.3327L43.2821 22.3327L43.187 20.6827C42.7918 21.2908 42.2456 21.7891 41.6002 22.1304C40.9548 22.4717 40.2316 22.6446 39.4995 22.6327ZM40.2218 19.9327C40.773 19.9327 41.2577 19.7827 41.7139 19.5108C42.1321 19.2108 42.4742 18.817 42.7403 18.3389C42.9779 17.8608 43.1015 17.2889 43.1015 16.6514C43.1385 16.0977 43.0293 15.544 42.7844 15.0445C42.5395 14.5449 42.1674 14.1166 41.7044 13.8014C41.2595 13.528 40.7459 13.3831 40.2218 13.3831C39.6976 13.3831 39.184 13.528 38.7391 13.8014C38.321 14.1014 37.9788 14.4952 37.7127 14.9733C37.4614 15.5006 37.3377 16.0783 37.3515 16.6608C37.3145 17.2145 37.4238 17.7682 37.6686 18.2677C37.9135 18.7673 38.2857 19.1956 38.7486 19.5108C39.1953 19.7827 39.68 19.9327 40.2218 19.9327ZM50.8188 7.9514C50.8188 8.27953 50.7617 8.57953 50.6097 8.82328C50.4576 9.05765 50.2485 9.27328 49.9729 9.42327C49.6973 9.57328 49.4027 9.62953 49.0985 9.62953C48.7944 9.62953 48.4903 9.57328 48.2147 9.42327C47.954 9.28013 47.7348 9.07358 47.5779 8.82328C47.4307 8.55621 47.3585 8.25521 47.3688 7.9514C47.3688 7.6139 47.4353 7.3139 47.5779 7.07953C47.7299 6.79828 47.9485 6.62953 48.2147 6.47953C48.4903 6.32953 48.7849 6.2639 49.0985 6.2639C49.4011 6.25702 49.7002 6.3277 49.9667 6.46902C50.2333 6.61034 50.4581 6.81747 50.6192 7.07015C50.7575 7.34348 50.826 7.646 50.8188 7.9514ZM47.5874 22.2952L47.5874 10.9889L50.6097 10.9889L50.6097 22.3139L47.5779 22.3139L47.5874 22.2952ZM58.6881 13.9514L58.6881 13.9889C58.5455 13.9233 58.3555 13.8952 58.2129 13.867C58.0228 13.8295 57.8708 13.8295 57.6902 13.8295C56.8443 13.8295 56.2076 14.0733 55.7894 14.5795C55.3332 15.0952 55.1241 15.817 55.1241 16.7452L55.1241 22.3045L52.0923 22.3045L52.0923 10.9795L54.877 10.9795L54.972 12.6952C55.2762 12.0952 55.6373 11.6452 56.1505 11.3077C56.661 10.9797 57.262 10.816 57.8708 10.8389C58.0893 10.8389 58.2984 10.8577 58.479 10.8952C58.5741 10.9233 58.6311 10.9233 58.6881 10.9514L58.6881 13.9514ZM59.9046 22.2952L59.9046 6.3389L62.9269 6.3389L62.9269 12.4327C63.3546 11.8889 63.8393 11.467 64.4476 11.1389C65.4105 10.6732 66.5044 10.5411 67.5528 10.7639C68.6012 10.9867 69.5429 11.5515 70.226 12.367C71.2508 13.532 71.7937 15.0347 71.7467 16.5764C71.7623 18.1484 71.2021 19.6731 70.169 20.8702C69.6911 21.4227 69.0963 21.8652 68.4263 22.1665C67.7564 22.4677 67.0276 22.6205 66.2913 22.6139C65.5986 22.6326 64.9123 22.4772 64.2972 22.1623C63.682 21.8475 63.1582 21.3834 62.7748 20.8139L62.6798 22.2858L59.9046 22.3139L59.9046 22.2952ZM65.7496 19.9327C66.2913 19.9327 66.776 19.7827 67.2322 19.5108C67.6504 19.2108 67.9926 18.817 68.2587 18.3389C68.5058 17.8608 68.6198 17.2889 68.6198 16.6514C68.6198 16.0233 68.5058 15.4514 68.2587 14.9733C68.0091 14.5122 67.6584 14.1119 67.2322 13.8014C66.7874 13.528 66.2738 13.3831 65.7496 13.3831C65.2255 13.3831 64.7118 13.528 64.267 13.8014C63.8393 14.1014 63.5067 14.4952 63.231 14.9733C62.9797 15.5006 62.8561 16.0783 62.8699 16.6608C62.8328 17.2145 62.9421 17.7682 63.187 18.2677C63.4319 18.7673 63.804 19.1956 64.267 19.5108C64.7137 19.7827 65.1984 19.9327 65.7496 19.9327ZM72.8871 22.3045L72.8871 10.9795L75.6718 10.9795L75.7669 12.4514C76.1168 11.8872 76.6132 11.4255 77.2047 11.1139C77.7962 10.8024 78.4613 10.6525 79.1313 10.6795C79.8974 10.6665 80.6504 10.8765 81.2962 11.2834C81.9419 11.6902 82.4517 12.2759 82.7618 12.967C83.0945 13.6795 83.2751 14.5608 83.2751 15.5451L83.2751 22.3327L80.2433 22.3327L80.2433 15.9389C80.2433 15.1514 80.0627 14.5326 79.7015 14.0733C79.3404 13.6233 78.8462 13.3795 78.2189 13.3795C77.7627 13.3795 77.3635 13.4733 77.0119 13.6795C76.6793 13.8952 76.4036 14.167 76.1945 14.5514C75.9831 14.9399 75.8783 15.3762 75.8904 15.817L75.8904 22.3045L72.8871 22.3045ZM84.7862 22.3045L84.7862 6.32953L87.818 6.32953L87.818 12.4233C88.2286 11.8765 88.7628 11.4317 89.3782 11.1241C89.9936 10.8165 90.6731 10.6547 91.363 10.6514C92.0792 10.6411 92.7885 10.7899 93.4384 11.0869C94.0883 11.3839 94.662 11.8214 95.1171 12.367C96.1346 13.5319 96.6736 15.03 96.6282 16.567C96.6447 18.1392 96.0844 19.6642 95.0506 20.8608C94.5727 21.4133 93.9778 21.8558 93.3079 22.1571C92.6379 22.4584 91.9092 22.6111 91.1729 22.6045C90.4801 22.6232 89.7939 22.4678 89.1787 22.153C88.5636 21.8381 88.0397 21.3741 87.6564 20.8045L87.5709 22.2764L84.7862 22.3045ZM90.6597 19.9327C91.2109 19.9327 91.6956 19.7827 92.1423 19.5108C92.57 19.2108 92.9026 18.817 93.1783 18.3389C93.4159 17.8608 93.5394 17.2889 93.5394 16.6514C93.5765 16.0977 93.4672 15.544 93.2223 15.0445C92.9774 14.5449 92.6053 14.1166 92.1423 13.8014C91.6975 13.528 91.1838 13.3831 90.6597 13.3831C90.1356 13.3831 89.6219 13.528 89.1771 13.8014C88.7589 14.1014 88.4167 14.4952 88.1506 14.9733C87.8853 15.4959 87.761 16.077 87.7895 16.6608C87.7524 17.2145 87.8617 17.7682 88.1066 18.2677C88.3515 18.7673 88.7236 19.1956 89.1866 19.5108C89.6333 19.7827 90.0895 19.9327 90.6597 19.9327Z" fill="rgb(255,56,92)" fill-rule="nonzero" />
</svg>
