<svg viewBox="0 0 96.9412 30" xmlns="http://www.w3.org/2000/svg" xmlns:xlink="http://www.w3.org/1999/xlink" width="96.941162" height="30.000000" fill="none">
	<rect id="Amazon Logo" width="96.941177" height="30.000000" x="0.000000" y="0.000000" fill="rgb(255,255,255)" fill-opacity="0" />
	<path id="path8" d="M60.1402 23.4612C54.5068 27.7253 46.3415 30.0003 39.3114 30.0003C29.4539 30.0003 20.5797 26.2563 13.8661 20.0292C13.3386 19.5395 13.8112 18.8722 14.4442 19.2535C21.6895 23.5826 30.6481 26.1869 39.9021 26.1869C46.1432 26.1869 53.0088 24.8609 59.3216 22.1092C60.2753 21.6932 61.0728 22.7505 60.1402 23.4612Z" fill="rgb(255,153,0)" fill-rule="evenodd" />
	<path id="path10" d="M62.4827 20.7095C61.7653 19.7648 57.7228 20.2632 55.9083 20.4842C55.3555 20.5535 55.2711 20.0595 55.769 19.7042C58.9887 17.3771 64.2719 18.0488 64.888 18.8288C65.504 19.6132 64.7276 25.0516 61.702 27.6473C61.2379 28.0459 60.7948 27.8336 61.0015 27.3049C61.6809 25.5629 63.2043 21.6585 62.4827 20.7095Z" fill="rgb(255,153,0)" fill-rule="evenodd" />
	<path id="path12" d="M56.0346 3.27641L56.0346 1.01439C56.0346 0.672052 56.2878 0.442383 56.5916 0.442383L66.4533 0.442383C66.7698 0.442383 67.023 0.676386 67.023 1.01439L67.023 2.95141C67.0187 3.27641 66.7529 3.70108 66.2803 4.37276L61.1701 11.8652C63.069 11.8175 65.0734 12.1078 66.7951 13.1045C67.1833 13.3299 67.2888 13.6592 67.3183 13.9842L67.3183 16.3979C67.3183 16.7272 66.9639 17.1129 66.5925 16.9136C63.5585 15.2799 59.5286 15.1022 56.1739 16.9309C55.8321 17.1216 55.4734 16.7402 55.4734 16.4109L55.4734 14.1185C55.4734 13.7502 55.4776 13.1218 55.8363 12.5628L61.7567 3.84408L56.6043 3.84408C56.2878 3.84408 56.0346 3.61442 56.0346 3.27641Z" fill="rgb(29,30,37)" fill-rule="evenodd" />
	<path id="path14" d="M20.0608 17.39L17.0606 17.39C16.7736 17.3684 16.5458 17.1474 16.5247 16.8657L16.5247 1.0532C16.5247 0.736864 16.7821 0.485526 17.1028 0.485526L19.9005 0.485526C20.1917 0.498518 20.4237 0.728195 20.4448 1.0142L20.4448 3.08122L20.4997 3.08122C21.2297 1.08353 22.6012 0.151855 24.4494 0.151855C26.3272 0.151855 27.5003 1.08353 28.3443 3.08122C29.0701 1.08353 30.72 0.151855 32.4881 0.151855C33.7456 0.151855 35.1213 0.684861 35.961 1.88087C36.9105 3.21122 36.7163 5.1439 36.7163 6.83826L36.7121 16.818C36.7121 17.1344 36.4547 17.39 36.134 17.39L33.138 17.39C32.8384 17.3684 32.5978 17.1214 32.5978 16.818L32.5978 8.43727C32.5978 7.76993 32.6569 6.10592 32.5134 5.47324C32.2898 4.41157 31.6188 4.11256 30.7496 4.11256C30.0238 4.11256 29.2642 4.6109 28.9562 5.40824C28.6481 6.20558 28.6776 7.54026 28.6776 8.43727L28.6776 16.818C28.6776 17.1344 28.4202 17.39 28.0995 17.39L25.1035 17.39C24.7997 17.3684 24.5634 17.1214 24.5634 16.818L24.5591 8.43727C24.5591 6.67359 24.8419 4.07789 22.7109 4.07789C20.5546 4.07789 20.639 6.60859 20.639 8.43727L20.639 16.818C20.639 17.1344 20.3815 17.39 20.0608 17.39L20.0608 17.39Z" fill="rgb(29,30,37)" fill-rule="evenodd" />
	<path id="path16" d="M75.5129 0.151855C79.9648 0.151855 82.3743 4.0779 82.3743 9.06995C82.3743 13.893 79.7116 17.7194 75.5129 17.7194C71.1412 17.7194 68.7612 13.7933 68.7612 8.90095C68.7612 3.97823 71.1707 0.151855 75.5129 0.151855ZM75.5382 3.38022C73.327 3.38022 73.1878 6.47425 73.1878 8.40261C73.1878 10.3353 73.1583 14.4607 75.5129 14.4607C77.838 14.4607 77.9477 11.1326 77.9477 9.10461C77.9477 7.76994 77.8929 6.17525 77.5004 4.9099C77.1628 3.80923 76.4919 3.38022 75.5382 3.38022Z" fill="rgb(29,30,37)" fill-rule="evenodd" />
	<path id="path18" d="M88.1472 17.39L85.1596 17.39C84.86 17.3684 84.6194 17.1214 84.6194 16.818L84.6152 1.0012C84.6406 0.710861 84.8895 0.485526 85.1933 0.485526L87.9742 0.485526C88.2358 0.498518 88.451 0.680529 88.5101 0.927531L88.5101 3.34555L88.5649 3.34555C89.4047 1.1832 90.582 0.151855 92.6539 0.151855C94 0.151855 95.3124 0.650195 96.1563 2.01521C96.9412 3.28055 96.9412 5.40824 96.9412 6.93792L96.9412 16.8917C96.9075 17.169 96.6585 17.39 96.3631 17.39L93.3544 17.39C93.0801 17.3684 92.8522 17.1604 92.8227 16.8917L92.8227 8.30294C92.8227 6.57392 93.0168 4.04323 90.9449 4.04323C90.2149 4.04323 89.5439 4.5459 89.2106 5.30857C88.7886 6.27492 88.7337 7.23693 88.7337 8.30294L88.7337 16.818C88.7295 17.1344 88.4679 17.39 88.1472 17.39L88.1472 17.39Z" fill="rgb(29,30,37)" fill-rule="evenodd" />
	<path id="path28" d="M48.1732 9.83677C48.1732 11.0371 48.2028 12.0381 47.612 13.1041C47.1352 13.9708 46.3756 14.5038 45.5359 14.5038C44.3839 14.5038 43.7087 13.6025 43.7087 12.2721C43.7087 9.6461 46 9.16943 48.1732 9.16943L48.1732 9.83677ZM51.1988 17.3465C51.0005 17.5285 50.7135 17.5415 50.4899 17.4202C49.494 16.5708 49.3126 16.1765 48.7682 15.3662C47.1225 17.0908 45.9536 17.6065 43.8226 17.6065C41.295 17.6065 39.3328 16.0075 39.3328 12.8051C39.3328 10.3048 40.6493 8.60176 42.5314 7.76975C44.1602 7.03307 46.4347 6.90307 48.1732 6.69941L48.1732 6.30073C48.1732 5.56839 48.2281 4.70171 47.8061 4.06905C47.4432 3.50137 46.7427 3.26737 46.1224 3.26737C44.9788 3.26737 43.9619 3.86971 43.7129 5.11772C43.6623 5.39506 43.4639 5.66806 43.1897 5.68106L40.2822 5.36039C40.0375 5.30406 39.7632 5.10039 39.8349 4.71472C40.5016 1.09201 43.6918 0 46.5444 0C48.0044 0 49.9118 0.398672 51.0638 1.53402C52.5238 2.9337 52.3846 4.80138 52.3846 6.83374L52.3846 11.6351C52.3846 13.0781 52.9669 13.7108 53.5155 14.4908C53.7054 14.7682 53.7476 15.1018 53.5028 15.3098C52.8909 15.8342 51.8022 16.8092 51.203 17.3552L51.1988 17.3465L51.1988 17.3465Z" fill="rgb(29,30,37)" fill-rule="evenodd" />
	<path id="path30" d="M8.84046 9.83726C8.84046 11.0376 8.86999 12.0386 8.27922 13.1046C7.80238 13.9713 7.04704 14.5043 6.20309 14.5043C5.05108 14.5043 4.38014 13.603 4.38014 12.2726C4.38014 9.64659 6.67148 9.16992 8.84046 9.16992L8.84046 9.83726ZM11.866 17.347C11.6677 17.529 11.3808 17.542 11.1571 17.4207C10.1612 16.5713 9.98401 16.177 9.43544 15.3666C7.78973 17.0913 6.62507 17.607 4.48985 17.607C1.96642 17.607 0 16.008 0 12.8056C0 10.3053 1.32079 8.60224 3.1986 7.77024C4.82744 7.03356 7.1019 6.90356 8.84046 6.69989L8.84046 6.30122C8.84046 5.56888 8.89531 4.7022 8.47755 4.06953C8.11043 3.50186 7.40995 3.26786 6.79386 3.26786C5.6503 3.26786 4.62911 3.87019 4.38014 5.11821C4.3295 5.39555 4.13117 5.66855 3.86111 5.68155L0.949452 5.36088C0.704704 5.30455 0.434637 5.10087 0.502154 4.71521C1.1731 1.0925 4.35904 0.000488281 7.21162 0.000488281C8.67166 0.000488281 10.579 0.39916 11.731 1.5345C13.1911 2.93418 13.0518 4.80187 13.0518 6.83423L13.0518 11.6356C13.0518 13.0786 13.6341 13.7113 14.1827 14.4913C14.3768 14.7686 14.419 15.1023 14.1743 15.3103C13.5624 15.8347 12.4737 16.8097 11.8745 17.3557L11.866 17.347L11.866 17.347Z" fill="rgb(29,30,37)" fill-rule="evenodd" />
</svg>
