<svg viewBox="0 0 94.0017 28.2733" xmlns="http://www.w3.org/2000/svg" xmlns:xlink="http://www.w3.org/1999/xlink" width="94.001709" height="28.273254" fill="none" customFrame="#000000">
	<g id="g15">
		<g id="g17">
			<path id="polygon19" d="M69.9895 27.2831L77.8385 18.6239L69.9895 9.96338L78.271 9.96338L82.1585 14.1701L85.9019 9.96338L93.8946 9.96338L86.0828 18.5881L94.0018 27.2831L85.6863 27.2831L81.834 23.0419L78.0181 27.2831L69.9895 27.2831Z" fill="rgb(255,102,0)" fill-rule="nonzero" />
			<path id="polygon21" d="M69.9896 6.08103L61.1 6.08103L61.1 9.96348L69.9896 9.96348L69.9896 15.8147L61.1 15.8147L61.1 21.1854L69.9896 21.1854L69.9896 27.2833L54.5662 27.2833L54.5662 0L69.9896 0L69.9896 6.08103Z" fill="rgb(255,102,0)" fill-rule="nonzero" />
		</g>
		<path id="path23" d="M48.0597 0L48.0597 11.1656L47.9881 11.1656C46.5477 9.54 44.748 8.97509 42.6598 8.97509C38.3824 8.97509 35.1603 11.8302 34.0293 15.605C32.7394 11.4457 29.413 8.89714 24.4804 8.89714C20.4747 8.89714 17.3115 10.6626 15.6608 13.5394L15.6608 9.96388L7.38087 9.96388L7.38087 6.08183L16.4166 6.08183L16.4166 0L0 0L0 27.2837L7.38087 27.2837L7.38087 15.8147L14.7376 15.8147C14.5183 16.6572 14.4012 17.5592 14.4012 18.5111C14.4012 24.2024 18.8293 28.1957 24.4804 28.1957C29.2325 28.1957 32.3642 26.0052 34.0207 22.0114L27.6955 22.0114C26.8399 23.2112 26.1909 23.5675 24.4804 23.5675C22.497 23.5675 20.7869 21.8684 20.7869 19.8542L33.6663 19.8542C34.2249 24.3747 37.8112 28.2733 42.7327 28.2733C44.8557 28.2733 46.7994 27.2479 47.9881 25.5166L48.0597 25.5166L48.0597 27.2829L54.5661 27.2829L54.5661 0L48.0597 0ZM20.9923 15.8962C21.4028 14.1633 22.7716 13.0307 24.4804 13.0307C26.3615 13.0307 27.6608 14.1284 28.0025 15.8962C28.1465 15.8962 20.9923 15.8962 20.9923 15.8962ZM44.1113 23.1292C41.7129 23.1292 40.2226 20.935 40.2226 18.6441C40.2226 16.1952 41.519 13.8403 44.1113 13.8403C46.7994 13.8403 47.8703 16.1952 47.8703 18.6441C47.8699 20.9664 46.7351 23.1292 44.1113 23.1292Z" fill="rgb(101,44,143)" fill-rule="nonzero" />
	</g>
</svg>
