<svg viewBox="0 0 89.4119 30" xmlns="http://www.w3.org/2000/svg" xmlns:xlink="http://www.w3.org/1999/xlink" width="89.411865" height="30.000000" fill="none">
	<rect id="Google Logo" width="89.411758" height="30.000000" x="0.000000" y="0.000000" fill="rgb(255,255,255)" fill-opacity="0" />
	<path id="Vector" d="M38.0494 15.385C38.0494 19.5491 34.7655 22.6176 30.7354 22.6176C26.7053 22.6176 23.4214 19.5491 23.4214 15.385C23.4214 11.1915 26.7053 8.15234 30.7354 8.15234C34.7655 8.15234 38.0494 11.1915 38.0494 15.385ZM34.8477 15.385C34.8477 12.7828 32.9444 11.0023 30.7354 11.0023C28.5264 11.0023 26.6231 12.7828 26.6231 15.385C26.6231 17.961 28.5264 19.7676 30.7354 19.7676C32.9444 19.7676 34.8477 17.9578 34.8477 15.385Z" fill="rgb(234,67,53)" fill-rule="nonzero" />
	<path id="Vector" d="M53.8277 15.385C53.8277 19.5491 50.5438 22.6176 46.5137 22.6176C42.4836 22.6176 39.1997 19.5491 39.1997 15.385C39.1997 11.1947 42.4836 8.15234 46.5137 8.15234C50.5438 8.15234 53.8277 11.1915 53.8277 15.385ZM50.626 15.385C50.626 12.7828 48.7227 11.0023 46.5137 11.0023C44.3047 11.0023 42.4014 12.7828 42.4014 15.385C42.4014 17.961 44.3047 19.7676 46.5137 19.7676C48.7227 19.7676 50.626 17.9578 50.626 15.385Z" fill="rgb(251,188,5)" fill-rule="nonzero" />
	<path id="Vector" d="M68.9489 8.5893L68.9489 21.5741C68.9489 26.9154 65.7734 29.0969 62.0194 29.0969C58.4857 29.0969 56.3589 26.7523 55.5568 24.835L58.3443 23.6839C58.8407 24.861 60.057 26.2502 62.0162 26.2502C64.4191 26.2502 65.9082 24.7795 65.9082 22.011L65.9082 20.9708L65.7964 20.9708C65.0798 21.848 63.6992 22.6143 61.957 22.6143C58.3115 22.6143 54.9717 19.4643 54.9717 15.411C54.9717 11.3284 58.3115 8.15234 61.957 8.15234C63.6959 8.15234 65.0765 8.91865 65.7964 9.76973L65.9082 9.76973L65.9082 8.59256L68.9489 8.59256L68.9489 8.5893ZM66.135 15.411C66.135 12.8643 64.4224 11.0023 62.243 11.0023C60.034 11.0023 58.1833 12.8643 58.1833 15.411C58.1833 17.9317 60.034 19.7676 62.243 19.7676C64.4224 19.7676 66.135 17.9317 66.135 15.411Z" fill="rgb(66,133,244)" fill-rule="nonzero" />
	<path id="Vector" d="M73.9619 0.978516L73.9619 22.1742L70.8391 22.1742L70.8391 0.978516L73.9619 0.978516Z" fill="rgb(52,168,83)" fill-rule="nonzero" />
	<path id="Vector" d="M86.1314 17.7652L88.6165 19.4087C87.8144 20.5859 85.8816 22.6141 82.5418 22.6141C78.3999 22.6141 75.3066 19.4381 75.3066 15.3815C75.3066 11.0804 78.4262 8.14893 82.1835 8.14893C85.967 8.14893 87.8177 11.1359 88.4226 12.75L88.7546 13.5718L79.008 17.5761C79.7542 19.0272 80.9146 19.7674 82.5418 19.7674C84.1722 19.7674 85.303 18.9718 86.1314 17.7652ZM78.4821 15.1631L84.9973 12.4794C84.639 11.5761 83.5608 10.9468 82.2919 10.9468C80.6648 10.9468 78.3999 12.3718 78.4821 15.1631Z" fill="rgb(234,67,53)" fill-rule="nonzero" />
	<path id="Vector" d="M11.6006 13.5033L11.6006 10.4348L22.0243 10.4348C22.1262 10.9696 22.1788 11.6022 22.1788 12.287C22.1788 14.5892 21.5444 17.4359 19.4997 19.4642C17.511 21.5185 14.97 22.6142 11.6039 22.6142C5.36477 22.6142 0.118408 17.5729 0.118408 11.3838C0.118408 5.19462 5.36477 0.15332 11.6039 0.15332C15.0554 0.15332 17.5143 1.4968 19.3617 3.24789L17.179 5.4131C15.8542 4.18049 14.0594 3.2218 11.6006 3.2218C7.04453 3.2218 3.48121 6.86419 3.48121 11.3838C3.48121 15.9033 7.04453 19.5457 11.6006 19.5457C14.5558 19.5457 16.2388 18.3685 17.317 17.299C18.1914 16.4316 18.7667 15.1925 18.9935 13.5001L11.6006 13.5033Z" fill="rgb(66,133,244)" fill-rule="nonzero" />
</svg>
