<svg viewBox="0 0 114.823 24.375" xmlns="http://www.w3.org/2000/svg" xmlns:xlink="http://www.w3.org/1999/xlink" width="114.823486" height="24.375000" fill="none">
	<rect id="Microsoft Logo" width="114.823540" height="24.375000" x="0.000244" y="0.000000" fill="rgb(255,255,255)" fill-opacity="0" />
	<path id="Vector" d="M40.5304 14.0391L39.846 15.9665L39.789 15.9665C39.6749 15.5319 39.4658 14.8705 39.1236 14.0769L35.4546 4.91268L31.8616 4.91268L31.8616 19.5188L34.2379 19.5188L34.2379 10.5057C34.2379 9.93884 34.2379 9.2964 34.2189 8.50279C34.1999 8.10599 34.1618 7.80367 34.1428 7.57692L34.1999 7.57692C34.3139 8.14378 34.447 8.55948 34.5421 8.82401L38.9525 19.481L40.6254 19.481L44.9978 8.72954C45.0929 8.4839 45.1879 7.99262 45.283 7.57692L45.34 7.57692C45.283 8.65396 45.245 9.61762 45.226 10.2034L45.226 19.4621L47.7544 19.4621L47.7544 4.87489L44.2944 4.87489L40.5304 14.0391ZM50.1497 8.99407L52.6211 8.99407L52.6211 19.4621L50.1497 19.4621L50.1497 8.99407ZM51.4044 4.57256C50.9862 4.57256 50.644 4.72372 50.3588 4.98826C50.0736 5.25279 49.9216 5.59291 49.9216 6.00861C49.9216 6.40541 50.0736 6.74553 50.3588 7.01006C50.644 7.2746 50.9862 7.40686 51.4044 7.40686C51.8226 7.40686 52.1838 7.2557 52.45 7.01006C52.7351 6.74553 52.8872 6.40541 52.8872 6.00861C52.8872 5.6118 52.7351 5.27169 52.45 4.98826C52.2028 4.72372 51.8416 4.57256 51.4044 4.57256ZM61.3849 8.8996C60.9286 8.80512 60.4534 8.74843 59.9971 8.74843C58.8755 8.74843 57.8489 8.99407 56.9935 9.48535C56.138 9.97663 55.4536 10.6569 55.0164 11.5072C54.5601 12.3763 54.332 13.3778 54.332 14.5304C54.332 15.5319 54.5601 16.4199 54.9974 17.2324C55.4346 18.026 56.0429 18.6685 56.8604 19.1031C57.6398 19.5377 58.5523 19.7644 59.5789 19.7644C60.7576 19.7644 61.7651 19.5188 62.5636 19.0653L62.5826 19.0464L62.5826 16.779L62.4875 16.8545C62.1263 17.1191 61.7081 17.3458 61.2898 17.4781C60.8526 17.6292 60.4534 17.7048 60.1112 17.7048C59.1227 17.7048 58.3432 17.4214 57.7919 16.7979C57.2216 16.1932 56.9364 15.3618 56.9364 14.3226C56.9364 13.2455 57.2216 12.3952 57.8109 11.7717C58.4003 11.1481 59.1797 10.8269 60.1302 10.8269C60.9286 10.8269 61.7461 11.0915 62.4875 11.6205L62.5826 11.6961L62.5826 9.2964L62.5636 9.2775C62.2404 9.14524 61.8792 8.99407 61.3849 8.8996ZM69.5404 8.82401C68.9321 8.82401 68.3618 9.01297 67.8675 9.40977C67.4493 9.74989 67.1641 10.2412 66.917 10.8269L66.8979 10.8269L66.8979 8.99407L64.4266 8.99407L64.4266 19.4621L66.8979 19.4621L66.8979 14.1147C66.8979 13.2077 67.0881 12.4519 67.5063 11.904C67.9245 11.3371 68.4568 11.0537 69.1032 11.0537C69.3313 11.0537 69.5594 11.1104 69.8446 11.1481C70.1107 11.2237 70.3008 11.2993 70.4339 11.3938L70.529 11.4694L70.529 9.01297L70.4719 8.99407C70.3008 8.8807 69.9586 8.82401 69.5404 8.82401ZM76.2701 8.76733C74.5402 8.76733 73.1524 9.2775 72.1829 10.279C71.1943 11.2804 70.7191 12.6598 70.7191 14.3981C70.7191 16.0231 71.2133 17.3458 72.1639 18.3095C73.1144 19.2542 74.4071 19.7455 76.023 19.7455C77.7149 19.7455 79.0647 19.2354 80.0342 18.215C81.0228 17.1947 81.498 15.8342 81.498 14.1525C81.498 12.4897 81.0418 11.167 80.1103 10.2034C79.2168 9.23971 77.905 8.76733 76.2701 8.76733ZM78.2472 16.8167C77.791 17.4025 77.0686 17.6859 76.1751 17.6859C75.2816 17.6859 74.5592 17.4025 74.0459 16.779C73.5326 16.1932 73.2855 15.3429 73.2855 14.2659C73.2855 13.151 73.5516 12.3008 74.0459 11.6961C74.5592 11.0915 75.2626 10.7891 76.1561 10.7891C77.0306 10.7891 77.7149 11.0726 78.2092 11.6583C78.7035 12.2441 78.9696 13.0944 78.9696 14.2092C78.9316 15.3429 78.7225 16.231 78.2472 16.8167ZM87.0111 13.34C86.2316 13.0188 85.7374 12.7731 85.5092 12.5653C85.3191 12.3763 85.2241 12.1118 85.2241 11.7717C85.2241 11.4883 85.3382 11.2048 85.6233 11.0159C85.9085 10.8269 86.2316 10.7324 86.7069 10.7324C87.1251 10.7324 87.5624 10.808 87.9806 10.9214C88.3988 11.0348 88.7791 11.2048 89.0832 11.4316L89.1783 11.5072L89.1783 9.20192L89.1212 9.18303C88.8361 9.06965 88.4559 8.95628 87.9996 8.8618C87.5434 8.78622 87.1251 8.74843 86.783 8.74843C85.6043 8.74843 84.6348 9.03186 83.8743 9.65541C83.1139 10.2412 82.7527 11.0348 82.7527 11.9606C82.7527 12.4519 82.8288 12.8865 82.9999 13.2455C83.171 13.6045 83.4181 13.9447 83.7603 14.2281C84.1025 14.4926 84.5967 14.7949 85.2811 15.0784C85.8514 15.324 86.2887 15.513 86.5548 15.6641C86.821 15.8153 86.9921 15.9854 87.1251 16.1176C87.2202 16.2688 87.2772 16.4577 87.2772 16.7034C87.2772 17.4025 86.7449 17.7426 85.6613 17.7426C85.2431 17.7426 84.8059 17.667 84.2926 17.497C83.7793 17.3269 83.304 17.0813 82.9048 16.7979L82.8098 16.7223L82.8098 19.122L82.8668 19.1409C83.228 19.3109 83.6652 19.4243 84.1975 19.5566C84.7298 19.6511 85.2051 19.7266 85.6233 19.7266C86.897 19.7266 87.9426 19.4432 88.684 18.8197C89.4444 18.215 89.8436 17.4403 89.8436 16.4388C89.8436 15.7397 89.6535 15.1162 89.2353 14.6438C88.684 14.1903 87.9996 13.7179 87.0111 13.34ZM96.3643 8.76733C94.6343 8.76733 93.2465 9.2775 92.277 10.279C91.3074 11.2804 90.8132 12.6598 90.8132 14.3981C90.8132 16.0231 91.3074 17.3458 92.258 18.3095C93.2085 19.2542 94.5012 19.7455 96.1171 19.7455C97.8091 19.7455 99.1588 19.2354 100.128 18.215C101.117 17.1947 101.592 15.8342 101.592 14.1525C101.592 12.4897 101.136 11.167 100.204 10.2034C99.3109 9.23971 97.9992 8.76733 96.3643 8.76733ZM98.3223 16.8167C97.8661 17.4025 97.1437 17.6859 96.2502 17.6859C95.3377 17.6859 94.6343 17.4025 94.121 16.779C93.6077 16.1932 93.3606 15.3429 93.3606 14.2659C93.3606 13.151 93.6267 12.3008 94.121 11.6961C94.6343 11.0915 95.3377 10.7891 96.2312 10.7891C97.0867 10.7891 97.79 11.0726 98.2843 11.6583C98.7786 12.2441 99.0447 13.0944 99.0447 14.2092C99.0447 15.3429 98.7976 16.231 98.3223 16.8167ZM114.804 11.0159L114.804 8.99407L112.314 8.99407L112.314 5.89524L112.238 5.91413L109.881 6.61326L109.824 6.63215L109.824 8.99407L106.098 8.99407L106.098 7.6714C106.098 7.06675 106.25 6.59436 106.516 6.29204C106.782 5.98971 107.181 5.83855 107.676 5.83855C108.018 5.83855 108.379 5.91413 108.778 6.08419L108.873 6.14087L108.873 4.0057L108.816 3.9868C108.474 3.87343 108.018 3.79785 107.428 3.79785C106.687 3.79785 106.041 3.96791 105.451 4.25134C104.862 4.57256 104.425 5.00715 104.102 5.59291C103.778 6.15977 103.607 6.80221 103.607 7.53913L103.607 8.99407L101.877 8.99407L101.877 10.997L103.607 10.997L103.607 19.4621L106.098 19.4621L106.098 11.0159L109.824 11.0159L109.824 16.4011C109.824 18.6118 110.869 19.7266 112.96 19.7266C113.303 19.7266 113.664 19.6699 114.006 19.6133C114.367 19.5377 114.633 19.4432 114.785 19.3676L114.804 19.3487L114.804 17.3269L114.709 17.4025C114.557 17.497 114.424 17.5726 114.196 17.6292C114.006 17.6859 113.835 17.7048 113.702 17.7048C113.208 17.7048 112.865 17.5915 112.618 17.308C112.39 17.0435 112.276 16.6089 112.276 15.9665L112.276 11.0159L114.804 11.0159Z" fill="rgb(115,115,115)" fill-rule="nonzero" />
	<path id="Vector" d="M0.000244141 0L11.6537 0L11.6537 11.5828L0.000244141 11.5828L0.000244141 0Z" fill="rgb(242,80,34)" fill-rule="nonzero" />
	<path id="Vector" d="M12.8701 0L24.5236 0L24.5236 11.5828L12.8701 11.5828L12.8701 0Z" fill="rgb(127,186,0)" fill-rule="nonzero" />
	<path id="Vector" d="M0.000244141 12.7925L11.6537 12.7925L11.6537 24.3753L0.000244141 24.3753L0.000244141 12.7925Z" fill="rgb(0,164,239)" fill-rule="nonzero" />
	<path id="Vector" d="M12.8701 12.7925L24.5236 12.7925L24.5236 24.3753L12.8701 24.3753L12.8701 12.7925Z" fill="rgb(255,185,0)" fill-rule="nonzero" />
</svg>
