<svg viewBox="0 0 92.05 31.6636" xmlns="http://www.w3.org/2000/svg" xmlns:xlink="http://www.w3.org/1999/xlink" width="92.050049" height="31.663635" fill="none" customFrame="#000000">
	<g id="Group">
		<path id="Vector" d="M81.212 14.8205L75.3417 24.9776L70.3332 24.9976L81.212 5.87952L92.0502 24.9976L86.9623 24.9976L81.212 14.8195L81.212 14.8205ZM65.4051 20.5759L71.0146 20.5759L68.4102 24.9976L61.0988 24.9976L61.1186 19.6137L61.1186 5.99706L65.4259 5.99706L65.4061 20.5759L65.4051 20.5759ZM50.0206 5.99806C55.3693 6.01798 59.6964 10.2613 59.6766 15.5068C59.6567 20.7333 55.3296 24.9776 49.98 24.9776C44.6511 24.9577 40.324 20.7143 40.324 15.4679C40.3439 10.2414 44.671 5.99806 50.0206 5.99806ZM50.0008 20.557C52.865 20.557 55.1679 18.2968 55.1679 15.5068C55.1888 12.7177 52.865 10.4376 50.0206 10.4376C47.1752 10.4177 44.8515 12.6978 44.8515 15.4878C44.8316 18.2769 47.1554 20.557 49.9998 20.557L50.0008 20.557ZM32.3511 13.9977C32.2916 13.2108 32.0903 12.1699 31.7898 11.1688C31.1714 9.10101 30.0964 7.20006 28.6448 5.60759C27.8832 4.78282 27.0223 4.01583 25.7389 3.11238C24.7606 2.62748 23.7987 2.10988 22.8549 1.56046C22.234 1.20685 21.4922 0.773548 20.5113 0.459778C19.3483 0.184061 18.1594 0.0328079 16.9647 0.00854792C15.8043 -0.0312958 14.641 0.0683136 13.5193 0.28347C12.3371 0.4797 11.3552 0.79347 10.053 1.10824C7.10742 2.38523 4.82434 4.31068 2.86063 6.86566C-3.99057 16.473 2.2001 29.9322 13.6393 31.523C15.5226 31.779 17.406 31.6803 19.1883 31.268L20.4508 30.9343C20.4905 30.9143 20.551 30.8944 20.5906 30.8944L22.0337 30.3446C22.113 30.3047 22.1735 30.2848 22.2538 30.246L22.8549 29.9711C24.008 29.3995 25.0905 28.6941 26.0801 27.8693C25.1793 28.6913 24.1996 29.4217 23.1554 30.0497L23.2149 30.0896C23.4162 30.0298 23.5957 29.971 23.7961 29.9322C23.7961 29.9322 23.7961 30.246 23.7564 30.1872C23.436 30.4233 23.9369 30.2071 24.5776 29.8724C25.2193 29.5387 25.8401 29.1254 26.4005 28.6542C27.2226 27.9669 27.9437 27.2198 28.9652 26.0026C30.0066 24.1748 31.3098 22.583 31.9108 20.4414C32.1111 19.8717 32.2906 19.2043 32.4116 18.516C32.5306 17.8287 32.612 17.1214 32.612 16.3943C32.5921 15.6671 32.5118 14.9201 32.3511 13.9977ZM17.526 30.1484C21.032 29.5975 23.9766 27.6531 26.3806 25.0005C27.0421 24.0373 27.5628 23.1528 28.2035 22.1906C29.0049 20.2253 28.9454 18.4771 29.2052 17.24C29.5265 14.9988 28.7649 13.1918 28.1242 11.2664C27.1423 9.02619 25.8401 7.35673 23.556 6.05982C17.7859 2.48384 9.93299 3.48492 6.18705 8.82996C6.16721 8.82996 6.06605 8.96742 5.86571 9.24234C6.12655 8.14265 6.78806 7.49419 7.44859 6.86466C9.41231 5.25398 11.6964 3.97599 14.3008 3.34845C17.2464 3.03368 20.1701 3.34845 22.7944 4.62544C26.7218 6.86466 29.3262 10.3829 29.9867 14.5465L29.9867 18.3984C29.1655 24.7057 23.7564 29.4999 17.526 30.1484ZM31.9306 15.8046C31.7898 6.57081 22.6347 0.342239 13.7196 1.60031C11.1152 2.24777 8.26978 3.54468 6.24655 5.35259C5.26469 6.00005 4.80451 7.19935 3.82265 8.16158C-0.104789 13.919 0.577554 21.2871 5.46503 25.7675C6.09197 26.39 6.76139 26.9679 7.46842 27.4968C3.3823 25.0394 1.53859 21.325 0.897899 16.8077C0.897899 15.196 1.21824 13.6042 1.55842 11.9935C3.84348 4.93921 11.0349 -0.188679 18.8689 1.10824C20.1711 1.423 21.4733 1.75669 22.7963 2.07146C24.4387 2.71892 26.0613 3.68214 27.3635 4.96013C28.6657 6.23613 29.6475 7.84781 30.6294 9.43857C31.2899 10.7166 31.6113 12.3272 31.9316 13.6042C31.9911 14.3314 31.9911 15.0785 31.9316 15.8056L31.9306 15.8046Z" fill="rgb(29,30,37)" fill-rule="evenodd" />
		<path id="Vector" d="M23.7966 15.9432C23.7966 19.9126 20.4712 23.135 16.3643 23.135C12.2583 23.135 8.93188 19.9126 8.93188 15.9432C8.93188 11.9747 12.2573 8.75238 16.3643 8.75238C20.4712 8.75238 23.7966 11.9747 23.7966 15.9442L23.7966 15.9432Z" fill="rgb(255,255,255)" fill-rule="evenodd" />
		<path id="Vector" d="M23.8375 14.7248C23.7374 14.1749 23.5767 13.7426 23.417 13.134C22.7753 11.7973 21.8341 10.7563 20.5914 9.87181C15.944 6.7879 9.55297 9.75427 8.87261 15.0206C8.61276 17.1035 9.35362 19.1076 10.6757 20.6406C10.275 20.2272 9.83463 19.7959 9.53412 19.3038L9.49445 19.3437C9.53412 19.4612 9.69479 19.5399 9.73446 19.6574C9.73446 19.6574 9.57379 19.6574 9.61446 19.6375C9.49445 19.501 9.59462 19.7172 9.77413 20.011C9.9348 20.3059 10.1351 20.5818 10.3751 20.8368C10.7163 21.2103 11.0763 21.544 11.6774 21.9963C12.56 22.4475 13.3406 23.0372 14.3621 23.3121C14.6428 23.3918 14.9631 23.4695 15.2844 23.5283C15.6246 23.588 15.945 23.6079 16.306 23.6079C16.6462 23.6079 17.0072 23.5681 17.4475 23.4884C17.9016 23.4347 18.3504 23.3431 18.7894 23.2145C19.7698 22.9181 20.673 22.4079 21.4345 21.7203C21.8153 21.3677 22.3568 20.9155 22.7763 20.3258C23.1175 19.6584 23.1572 19.3237 23.3178 19.0289C23.4775 18.7341 23.6779 18.4004 23.8187 17.9481C23.9335 17.4116 24.0005 16.866 24.019 16.3175C23.9992 15.7677 23.9595 15.2368 23.8385 14.7258L23.8375 14.7248ZM19.0691 11.0711C19.7504 11.4636 19.8506 11.5223 19.4896 11.2673C20.0113 11.3849 20.3316 11.6797 20.6519 11.9746C21.4335 12.8591 22.0742 13.9 22.3945 15.0983C22.575 16.454 22.4342 17.8097 21.854 19.009C20.8126 20.8358 19.1494 22.054 17.1658 22.3877C16.9457 22.3877 16.7057 22.3877 16.4845 22.4076C17.0458 22.309 17.4069 21.9554 18.4284 21.5819C19.5293 21.1894 20.772 19.3626 21.374 18.3008C23.1364 15.4121 21.0526 12.7406 19.0691 11.0711ZM15.3033 22.4266C12.2585 22.1128 9.91397 19.6176 9.59363 16.7289C9.87331 18.3406 10.8353 19.5777 12.1375 20.6784C12.5987 20.9733 13.2791 21.3857 13.7402 21.6805C14.5218 21.9753 14.982 22.2901 15.7436 22.4276L15.3033 22.4276L15.3033 22.4266ZM23.4964 17.1811C23.3575 17.7908 23.2167 18.3794 23.0759 18.9891C22.7753 19.7361 22.335 20.5021 21.734 21.1107C21.133 21.7203 20.3713 22.1915 19.6106 22.6437C19.0096 22.9575 18.2479 23.1149 17.627 23.2713C17.266 23.3111 16.8455 23.1537 16.4845 23.1348C20.9326 23.0163 23.9774 18.8715 23.3169 14.7646C22.9955 13.5663 22.3548 12.5244 21.5733 11.4835C21.253 11.0313 20.6311 10.7563 20.1709 10.3041C17.386 8.55597 13.7006 8.90958 11.597 11.2086C11.3021 11.5107 11.0274 11.8321 10.7748 12.1708C11.8975 10.5203 13.7006 9.36181 15.8636 9.02712C16.6253 9.0072 17.4069 9.14566 18.1675 9.28312C21.5336 10.3041 24.0379 13.5663 23.4964 17.1821L23.4964 17.1811Z" fill="rgb(215,223,35)" fill-rule="evenodd" />
	</g>
</svg>
