<svg viewBox="0 0 78.6204 27.57" xmlns="http://www.w3.org/2000/svg" xmlns:xlink="http://www.w3.org/1999/xlink" width="78.620361" height="27.570007" fill="none" customFrame="#000000">
	<path id="Vector" d="M65.0013 27.5702C72.5104 27.5702 78.6203 21.3857 78.6203 13.7852C78.6203 6.18024 72.5104 0.000244141 65.0013 0.000244141C57.4907 0.000244141 51.3823 6.18024 51.3823 13.7852C51.3823 21.3857 57.4907 27.5702 65.0013 27.5702ZM65.0013 8.86975C67.6773 8.86975 69.8567 11.0747 69.8567 13.7837C69.8567 16.4927 67.6758 18.6947 64.9998 18.6947C62.3222 18.6947 60.1459 16.4927 60.1459 13.7822C60.1459 11.0702 62.3237 8.86674 64.9998 8.86674L65.0013 8.86975ZM13.619 27.5702C21.1281 27.5702 27.238 21.3857 27.238 13.7852C27.238 6.18024 21.1281 0.000244141 13.619 0.000244141C6.1114 0.000244141 0 6.18024 0 13.7852C0 21.3857 6.1114 27.5702 13.619 27.5702ZM13.619 8.86975C16.2966 8.86975 18.4744 11.0747 18.4744 13.7837C18.4744 16.4927 16.2966 18.6947 13.619 18.6947C10.9429 18.6947 8.76658 16.4927 8.76658 13.7822C8.76658 11.0702 10.9444 8.86674 13.619 8.86674L13.619 8.86975ZM39.3027 8.55924L35.1215 0.180244L25.3316 0.180244L34.4756 18.5102L34.4756 27.1397L44.1312 27.1397L44.1312 18.5102L53.2752 0.180244L43.4809 0.180244L39.3042 8.55924L39.3027 8.55924Z" fill="rgb(238,46,36)" fill-rule="nonzero" />
</svg>
