<svg width="28" height="34" viewBox="0 0 28 34" fill="none" xmlns="http://www.w3.org/2000/svg">
<path d="M8.99967 5.33333H5.66634C3.82539 5.33333 2.33301 6.82572 2.33301 8.66667V28.6667C2.33301 30.5076 3.82539 32 5.66634 32H22.333C24.174 32 25.6663 30.5076 25.6663 28.6667V8.66667C25.6663 6.82572 24.174 5.33333 22.333 5.33333H18.9997M8.99967 5.33333C8.99967 7.17428 10.4921 8.66667 12.333 8.66667H15.6663C17.5073 8.66667 18.9997 7.17428 18.9997 5.33333M8.99967 5.33333C8.99967 3.49238 10.4921 2 12.333 2H15.6663C17.5073 2 18.9997 3.49238 18.9997 5.33333M13.9997 17H18.9997M13.9997 23.6667H18.9997M8.99967 17H9.01634M8.99967 23.6667H9.01634" stroke="white" stroke-width="3" stroke-linecap="round"/>
</svg>
