<svg viewBox="0 0 17.4875 17.4874" xmlns="http://www.w3.org/2000/svg" xmlns:xlink="http://www.w3.org/1999/xlink" width="17.487549" height="17.487427" fill="none" customFrame="#000000">
	<g id="vuesax/linear/more">
		<g id="more">
			<path id="Vector" d="M3.64308 7.28662C2.84157 7.28662 2.18579 7.9424 2.18579 8.74391C2.18579 9.54541 2.84157 10.2012 3.64308 10.2012C4.44458 10.2012 5.10036 9.54541 5.10036 8.74391C5.10036 7.9424 4.44458 7.28662 3.64308 7.28662Z" fill="rgb(126.154,131.588,145.562)" fill-rule="nonzero" />
			<path id="Vector" d="M13.8442 7.28662C13.0427 7.28662 12.387 7.9424 12.387 8.74391C12.387 9.54541 13.0427 10.2012 13.8442 10.2012C14.6458 10.2012 15.3015 9.54541 15.3015 8.74391C15.3015 7.9424 14.6458 7.28662 13.8442 7.28662Z" fill="rgb(126.154,131.588,145.562)" fill-rule="nonzero" />
			<path id="Vector" d="M8.74366 7.28662C7.94216 7.28662 7.28638 7.9424 7.28638 8.74391C7.28638 9.54541 7.94216 10.2012 8.74366 10.2012C9.54517 10.2012 10.2009 9.54541 10.2009 8.74391C10.2009 7.9424 9.54517 7.28662 8.74366 7.28662Z" fill="rgb(126.154,131.588,145.562)" fill-rule="nonzero" />
			<path id="Vector" d="M17.4874 0L0 0L0 17.4874L17.4874 17.4874L17.4874 0Z" opacity="0" fill="rgb(126.154,131.588,145.562)" fill-rule="evenodd" />
		</g>
	</g>
</svg>
