<svg viewBox="0 0 19.2 19.2" xmlns="http://www.w3.org/2000/svg" xmlns:xlink="http://www.w3.org/1999/xlink" width="19.199951" height="19.199951" fill="none" customFrame="#000000">
	<path id="Icon" d="M9.59988 19.2C14.9018 19.2 19.1999 14.9019 19.1999 9.6C19.1999 4.29807 14.9018 0 9.59988 0C4.29795 0 -0.00012207 4.29807 -0.00012207 9.6C-0.00012207 14.9019 4.29795 19.2 9.59988 19.2ZM14.0484 8.04853C14.517 7.5799 14.517 6.8201 14.0484 6.35147C13.5798 5.88284 12.82 5.88284 12.3514 6.35147L8.39988 10.3029L6.84841 8.75147C6.37978 8.28284 5.61998 8.28284 5.15135 8.75147C4.68272 9.2201 4.68272 9.9799 5.15135 10.4485L7.55135 12.8485C8.01998 13.3172 8.77978 13.3172 9.24841 12.8485L14.0484 8.04853Z" fill="rgb(126.154,131.588,145.562)" fill-rule="evenodd" />
</svg>
